<?xml version="1.0" standalone="no"?>
<!DOCTYPE svg PUBLIC "-//W3C//DTD SVG 20010904//EN"
 "http://www.w3.org/TR/2001/REC-SVG-20010904/DTD/svg10.dtd">
<svg version="1.0" xmlns="http://www.w3.org/2000/svg"
 width="269.000000pt" height="271.000000pt" viewBox="0 0 269.000000 271.000000"
 preserveAspectRatio="xMidYMid meet">

<g transform="translate(0.000000,271.000000) scale(0.100000,-0.100000)"
fill="#000000" stroke="none">
<path d="M590 2615 c-273 -56 -466 -258 -510 -535 -8 -54 -10 -272 -8 -775 3
-628 5 -706 21 -758 68 -231 230 -391 458 -454 59 -17 126 -18 799 -18 673 0
740 1 799 18 230 63 395 228 459 459 15 57 17 130 17 798 0 668 -2 741 -17
798 -64 228 -224 391 -453 459 -55 16 -124 18 -780 19 -566 2 -734 0 -785 -11z
m1510 -166 c165 -38 311 -184 349 -349 14 -61 14 -1439 0 -1500 -38 -165 -184
-311 -349 -349 -61 -14 -1439 -14 -1500 0 -165 38 -311 184 -349 349 -14 61
-14 1439 0 1500 37 162 185 311 345 349 56 13 1447 13 1504 0z"/>
<path d="M568 1834 c-5 -4 -8 -234 -8 -512 l0 -504 268 4 c250 4 271 5 325 27
68 27 121 76 151 140 27 60 29 190 3 238 -24 45 -84 101 -123 115 -19 7 -34
14 -34 18 0 3 18 17 39 33 117 82 119 265 3 369 -67 60 -114 70 -382 75 -129
3 -238 2 -242 -3z m501 -142 c48 -24 73 -62 78 -119 5 -60 -19 -110 -67 -138
-31 -18 -56 -20 -207 -23 l-173 -4 0 158 0 157 167 -7 c128 -5 176 -11 202
-24z m-34 -412 c97 -16 145 -65 153 -154 4 -46 0 -62 -21 -99 -43 -73 -71 -81
-284 -85 l-183 -4 0 176 0 176 138 0 c75 0 164 -5 197 -10z"/>
<path d="M1793 1742 l-203 -2 0 -50 0 -50 208 2 207 3 3 44 c2 24 0 46 -5 50
-4 3 -99 5 -210 3z"/>
<path d="M1683 1551 c-137 -47 -211 -159 -221 -337 -10 -193 53 -316 198 -382
70 -33 196 -36 277 -8 70 23 144 91 172 157 12 28 20 53 18 56 -3 2 -30 8 -61
12 -54 7 -76 1 -76 -24 0 -20 -64 -88 -96 -101 -47 -20 -131 -17 -180 5 -23
10 -54 35 -69 54 -28 37 -55 113 -55 154 l0 24 273 -1 c313 -2 287 -12 268
107 -14 88 -61 183 -113 228 -85 72 -222 95 -335 56z m195 -96 c20 -9 48 -26
61 -38 30 -27 60 -93 61 -129 l0 -28 -200 0 -200 0 0 27 c0 40 38 110 75 139
59 45 137 56 203 29z"/>
</g>
</svg>
