<?xml version="1.0" standalone="no"?>
<!DOCTYPE svg PUBLIC "-//W3C//DTD SVG 20010904//EN"
 "http://www.w3.org/TR/2001/REC-SVG-20010904/DTD/svg10.dtd">
<svg version="1.0" xmlns="http://www.w3.org/2000/svg"
 width="234.000000pt" height="231.000000pt" viewBox="0 0 234.000000 231.000000"
 preserveAspectRatio="xMidYMid meet">
<metadata>
Created by potrace 1.16, written by Peter Selinger 2001-2019
</metadata>
<g transform="translate(0.000000,231.000000) scale(0.100000,-0.100000)"
fill="#000000" stroke="none">
<path d="M976 2264 c-471 -85 -839 -449 -921 -912 -19 -102 -19 -289 0 -394
60 -348 288 -653 605 -813 161 -81 318 -118 505 -118 317 0 596 120 816 351
196 204 296 441 306 724 9 219 -23 371 -114 553 -162 324 -462 547 -821 610
-107 18 -270 18 -376 -1z m387 -110 c306 -58 576 -265 717 -549 76 -152 103
-267 104 -445 1 -163 -14 -252 -66 -380 -57 -140 -116 -228 -228 -341 -151
-152 -290 -232 -487 -281 -127 -32 -351 -32 -477 0 -392 99 -680 403 -768 807
-7 35 -12 119 -12 200 1 117 6 156 28 240 138 527 653 851 1189 749z"/>
<path d="M594 1609 c-16 -4 -41 -20 -55 -35 l-24 -26 -3 -384 c-3 -428 -2
-432 63 -460 53 -22 1143 -21 1185 1 64 33 65 41 65 450 0 407 1 401 -62 442
-25 17 -70 18 -583 20 -307 1 -569 -3 -586 -8z m986 -123 c-61 -60 -397 -316
-415 -316 -18 0 -435 321 -435 335 0 3 197 5 437 5 l438 0 -25 -24z m-698
-242 c265 -211 288 -224 326 -192 54 47 502 398 506 398 3 0 6 -143 6 -318 0
-234 -3 -321 -12 -330 -17 -17 -1069 -17 -1086 0 -9 9 -12 96 -12 330 0 175 3
318 6 318 3 0 123 -93 266 -206z"/>
</g>
</svg>
