<?xml version="1.0" standalone="no"?>
<!DOCTYPE svg PUBLIC "-//W3C//DTD SVG 20010904//EN"
 "http://www.w3.org/TR/2001/REC-SVG-20010904/DTD/svg10.dtd">
<svg version="1.0" xmlns="http://www.w3.org/2000/svg"
 width="269.000000pt" height="271.000000pt" viewBox="0 0 269.000000 271.000000"
 preserveAspectRatio="xMidYMid meet">

<g transform="translate(0.000000,271.000000) scale(0.100000,-0.100000)"
fill="#000000" stroke="none">
<path d="M250 2613 c-27 -10 -65 -37 -95 -67 -91 -91 -85 -5 -85 -1196 0
-1191 -6 -1105 84 -1196 91 -90 5 -84 1196 -84 1191 0 1105 -6 1196 84 90 91
84 5 84 1196 0 1191 6 1105 -84 1196 -91 90 -4 84 -1200 83 -931 0 -1056 -2
-1096 -16z m2161 -148 c16 -9 39 -30 49 -48 19 -31 20 -58 20 -1067 0 -1009
-1 -1036 -20 -1067 -40 -67 28 -63 -1112 -63 -1007 0 -1034 1 -1065 20 -67 40
-63 -28 -63 1110 0 1138 -4 1070 63 1110 31 19 58 20 1065 20 913 0 1036 -2
1063 -15z"/>
<path d="M535 2316 c-216 -102 -184 -421 48 -477 185 -44 352 123 308 308 -38
156 -211 238 -356 169z m182 -161 c32 -32 35 -40 30 -77 -7 -53 -42 -88 -95
-95 -37 -5 -45 -2 -77 30 -48 48 -49 101 -4 146 45 45 98 44 146 -4z"/>
<path d="M416 1639 l-26 -20 0 -610 c0 -596 0 -609 20 -629 19 -19 33 -20 234
-20 l215 0 20 26 c21 26 21 35 21 626 l0 599 -25 24 c-24 25 -25 25 -228 25
-192 0 -206 -1 -231 -21z m334 -629 l0 -500 -105 0 -105 0 0 500 0 500 105 0
105 0 0 -500z"/>
<path d="M1096 1639 l-26 -20 0 -610 c0 -596 0 -609 20 -629 19 -19 33 -20
234 -20 l215 0 20 26 c20 26 21 38 21 386 0 394 1 403 60 433 48 25 105 19
142 -14 l33 -29 5 -382 5 -382 24 -19 c21 -17 41 -19 236 -19 l214 0 21 27
c21 27 21 31 18 438 l-3 410 -26 67 c-35 90 -80 158 -145 217 -141 129 -343
172 -522 112 l-61 -21 -25 25 -25 25 -204 0 c-192 0 -206 -1 -231 -21z m334
-163 c0 -39 25 -73 60 -81 19 -4 42 5 94 40 38 24 85 50 105 55 190 56 372
-23 458 -198 l38 -76 3 -353 3 -353 -110 0 -111 0 0 328 c0 307 -2 330 -21
372 -81 181 -326 217 -453 68 -63 -73 -66 -95 -66 -450 l0 -318 -105 0 -105 0
0 500 0 500 105 0 105 0 0 -34z"/>
</g>
</svg>
