<?xml version="1.0" standalone="no"?>
<!DOCTYPE svg PUBLIC "-//W3C//DTD SVG 20010904//EN"
 "http://www.w3.org/TR/2001/REC-SVG-20010904/DTD/svg10.dtd">
<svg version="1.0" xmlns="http://www.w3.org/2000/svg"
 width="468.000000pt" height="462.000000pt" viewBox="0 0 468.000000 462.000000"
 preserveAspectRatio="xMidYMid meet">
<metadata>
Created by potrace 1.16, written by Peter Selinger 2001-2019
</metadata>
<g transform="translate(0.000000,462.000000) scale(0.100000,-0.100000)"
fill="#000000" stroke="none">
<path d="M2145 4584 c-292 -30 -502 -82 -732 -180 -403 -172 -762 -475 -1006
-850 -371 -568 -467 -1286 -257 -1933 153 -473 478 -904 889 -1180 289 -195
593 -312 951 -367 159 -25 481 -25 640 0 497 77 930 295 1280 646 338 339 547
744 636 1235 22 120 30 479 14 616 -117 1024 -901 1838 -1920 1994 -102 15
-414 27 -495 19z m454 -190 c343 -45 688 -189 973 -405 104 -79 281 -250 361
-349 398 -492 551 -1127 422 -1752 -142 -692 -650 -1283 -1318 -1532 -385
-144 -834 -170 -1227 -71 -384 97 -703 277 -980 555 -904 903 -800 2383 222
3156 315 238 696 381 1098 414 120 10 301 4 449 -16z"/>
<path d="M1490 3531 c-53 -11 -114 -46 -145 -83 -118 -139 -78 -346 81 -423
58 -28 161 -32 215 -8 130 58 194 192 155 327 -38 129 -178 214 -306 187z"/>
<path d="M2783 2831 c-86 -25 -164 -75 -234 -149 l-59 -63 0 96 0 95 -215 0
-215 0 0 -730 0 -730 215 0 214 0 4 433 c3 467 4 470 60 553 39 59 103 94 184
101 114 10 198 -38 244 -140 24 -52 24 -53 27 -499 l3 -448 224 0 225 0 0 505
c0 565 -3 604 -65 731 -61 125 -176 216 -316 249 -85 20 -218 18 -296 -4z"/>
<path d="M1320 2080 l0 -730 225 0 225 0 0 730 0 730 -225 0 -225 0 0 -730z"/>
</g>
</svg>
