<?xml version="1.0" standalone="no"?>
<!DOCTYPE svg PUBLIC "-//W3C//DTD SVG 20010904//EN"
 "http://www.w3.org/TR/2001/REC-SVG-20010904/DTD/svg10.dtd">
<svg version="1.0" xmlns="http://www.w3.org/2000/svg"
 width="269.000000pt" height="271.000000pt" viewBox="0 0 269.000000 271.000000"
 preserveAspectRatio="xMidYMid meet">

<g transform="translate(0.000000,271.000000) scale(0.100000,-0.100000)"
fill="#000000" stroke="none">
<path d="M544 2531 c-58 -27 -111 -77 -142 -135 l-27 -51 0 -995 0 -995 27
-51 c31 -58 84 -108 142 -135 39 -18 84 -19 806 -19 722 0 767 1 806 19 58 27
111 77 142 135 l27 51 0 995 0 995 -27 51 c-31 58 -84 108 -142 135 -39 18
-84 19 -806 19 -722 0 -767 -1 -806 -19z m1572 -150 c67 -41 64 12 64 -1031 0
-1043 3 -990 -64 -1031 -30 -18 -64 -19 -766 -19 -702 0 -736 1 -766 19 -67
41 -64 -12 -64 1031 0 1043 -3 990 64 1031 30 18 64 19 766 19 702 0 736 -1
766 -19z"/>
<path d="M1280 2181 c-173 -38 -277 -199 -235 -364 9 -34 27 -79 40 -99 l24
-37 -42 -24 c-64 -38 -131 -101 -172 -162 -70 -107 -96 -234 -55 -275 19 -19
33 -20 489 -20 258 0 477 3 486 6 8 4 22 19 31 35 13 26 13 36 -1 91 -35 133
-128 261 -232 320 -49 28 -53 32 -39 47 8 9 25 39 37 66 51 114 17 261 -77
344 -66 58 -176 89 -254 72z m117 -170 c97 -45 116 -162 39 -240 -34 -34 -40
-36 -99 -36 -68 0 -102 17 -132 68 -23 39 -22 107 1 148 20 35 92 79 129 79
11 0 39 -9 62 -19z m17 -446 c88 -15 199 -94 244 -174 l23 -41 -346 0 -346 0
23 41 c48 85 158 161 260 178 53 9 66 8 142 -4z"/>
<path d="M690 943 c-16 -20 -20 -36 -16 -58 13 -63 -26 -60 676 -60 702 0 663
-3 676 60 4 22 0 38 -16 58 l-21 27 -639 0 -639 0 -21 -27z"/>
<path d="M690 643 c-26 -33 -21 -79 11 -105 20 -17 66 -18 649 -18 583 0 629
1 649 18 32 26 37 72 11 105 l-21 27 -639 0 -639 0 -21 -27z"/>
</g>
</svg>
